<svg t="1647921757205" class="icon" viewBox="0 0 1024 1024" version="1.1" xmlns="http://www.w3.org/2000/svg" p-id="1486" width="128" height="128"><path d="M512 61.3888a450.6112 450.6112 0 1 0 0.1024 901.2224A450.6112 450.6112 0 0 0 512 61.3888z m181.1456 467.9168a1372.928 1372.928 0 0 0-76.6464-99.2768 807.3728 807.3728 0 0 0-82.6368-84.224c-29.5936-25.8048-61.8496-50.2784-97.28-67.3792a461.7216 461.7216 0 0 0-73.6768-27.4432c-2.8672-0.768-10.6496-4.3008-12.9024-0.768-1.4336 2.2016-0.3072 6.2976-0.1024 8.704l1.9968 15.7696c7.5776 62.8736 10.4448 129.28-9.1136 190.4128A199.68 199.68 0 0 1 287.744 551.424c-21.1456 19.4048-51.3024 38.912-81.2544 37.4784a58.4192 58.4192 0 0 1-16.5888-3.0208c-32.0512-10.8032-33.9456-45.3632-34.1504-73.8816a357.9904 357.9904 0 0 1 11.0592-90.88 360.0896 360.0896 0 0 1 226.2528-247.5008A356.0448 356.0448 0 0 1 512 153.2928a358.9632 358.9632 0 0 1 297.8304 160.6144c16.384 24.9856 29.5424 52.0192 39.2192 80.1792h-0.1536c3.1232 8.9088 5.9904 17.92 8.3456 26.9824 7.4752 29.696 11.264 60.3136 11.0592 90.88-0.4096 57.6-18.944 121.1904-91.2896 90.6752-34.1504-14.4384-62.6688-43.6224-83.8656-73.3184z" fill="#707070" p-id="1487"></path></svg>